<?xml version="1.0" encoding="utf-8"?>
<!-- Generator: Adobe Illustrator 26.5.0, SVG Export Plug-In . SVG Version: 6.00 Build 0)  -->
<svg version="1.1" id="Слой_1" xmlns="http://www.w3.org/2000/svg" xmlns:xlink="http://www.w3.org/1999/xlink" x="0px" y="0px"
	 viewBox="0 0 31.7 31.7" style="enable-background:new 0 0 31.7 31.7;" xml:space="preserve">
<g>
	<path d="M0.3,24.1c0.9,0,1.7,0,2.6,0c0-0.4,0.1-1,0.2-1.4c0.5-2.9,2.4-4.8,4.5-4.7c2.2,0.1,3.9,2.4,4.3,5.3c0,0.3,0,0.7,0.1,0.8
		s0.4,0.1,0.6,0.1c2.6,0,5.1,0,7.7,0c0.1,0,0.3,0,0.4,0c0.1-0.6,0.1-1,0.2-1.5c0.5-2.9,2.4-4.8,4.5-4.7c2.2,0.1,3.9,2.4,4.2,5.4
		c0.1,0.8,0.1,0.8,0.6,0.8c0.4,0,0.8,0,1.2,0c0-3.6,0-7.2,0-10.8c-10.2,0-20.3,0-30.5,0c-0.1,1.1-0.3,2.2-0.3,3.3
		c-0.1,1.2-0.1,2.5-0.2,3.7c0,0.1,0,0.3,0,0.4C0.3,21.9,0.3,23,0.3,24.1z"/>
	<path d="M20.3,10.7c3.7,0,7.3,0,11,0c0-0.8-0.1-1.7-0.1-2.4c-0.1-1.4-0.3-2.8-0.8-4C30.3,4.2,30.2,4,30.1,4c-3.2,0-6.4,0-9.7,0
		c0,0-0.1,0-0.2,0C20.3,6.2,20.3,8.4,20.3,10.7z"/>
	<path d="M10,4C9.9,4,9.7,4,9.6,4C8.1,4,6.5,4,5,4C4.5,4,4.1,4.3,3.7,4.7C3,5.7,2.5,6.8,2.1,8c-0.3,0.8-0.5,1.8-0.8,2.6
		c2.9,0,5.8,0,8.7,0C10,8.4,10,6.2,10,4z"/>
	<path d="M18.4,10.7c0-2.2,0-4.4,0-6.6c-2.2,0-4.3,0-6.5,0c0,2.2,0,4.4,0,6.6C14.1,10.7,16.2,10.7,18.4,10.7z"/>
	<path d="M25.1,27.7c1.4,0,2.6-1.7,2.6-3.6s-1.2-3.6-2.6-3.6s-2.6,1.7-2.6,3.6C22.5,26.2,23.6,27.7,25.1,27.7z"/>
	<path d="M7.3,27.7c1.4,0,2.6-1.7,2.6-3.6s-1.2-3.6-2.6-3.6s-2.6,1.7-2.6,3.6S5.9,27.7,7.3,27.7z"/>
</g>
</svg>
